HIERARCHY
ROOT hip
{
  OFFSET 0 0 0
  CHANNELS 6 Xposition Yposition Zposition Zrotation Yrotation Xrotation
  JOINT abdomen
  {
    OFFSET 0 20.6881 -0.73152
    CHANNELS 3 Zrotation Xrotation Yrotation
    JOINT chest
    {
      OFFSET 0 11.7043 -0.48768
      CHANNELS 3 Zrotation Xrotation Yrotation
      JOINT neck
      {
        OFFSET 0 22.1894 -2.19456
        CHANNELS 3 Zrotation Xrotation Yrotation
        JOINT head
        {
          OFFSET -0.24384 7.07133 1.2192
          CHANNELS 3 Zrotation Xrotation Yrotation
          JOINT leftEye
          {
            OFFSET 4.14528 8.04674 8.04672
            CHANNELS 3 Zrotation Xrotation Yrotation
            End Site
            {
              OFFSET 1 0 0
            }
          }
          JOINT rightEye
          {
            OFFSET -3.6576 8.04674 8.04672
            CHANNELS 3 Zrotation Xrotation Yrotation
            End Site
            {
              OFFSET 1 0 0
            }
          }
        }
      }
      JOINT rCollar
      {
        OFFSET -2.68224 19.2634 -4.8768
        CHANNELS 3 Zrotation Xrotation Yrotation
        JOINT rShldr
        {
          OFFSET -8.77824 -1.95073 1.46304
          CHANNELS 3 Zrotation Xrotation Yrotation
          JOINT rForeArm
          {
            OFFSET -28.1742 -1.7115 0.48768
            CHANNELS 3 Zrotation Xrotation Yrotation
            JOINT rHand
            {
              OFFSET -22.5879 0.773209 7.07136
              CHANNELS 3 Zrotation Xrotation Yrotation
              JOINT rThumb1
              {
                OFFSET -1.2192 -0.487915 3.41376
                CHANNELS 3 Zrotation Xrotation Yrotation
                JOINT rThumb2
                {
                  OFFSET -3.37035 -0.52449 3.41376
                  CHANNELS 3 Zrotation Xrotation Yrotation
                  End Site
                  {
                    OFFSET -1.78271 -1.18214 1.43049
                  }
                }
              }
              JOINT rIndex1
              {
                OFFSET -7.75947 0.938293 5.60832
                CHANNELS 3 Zrotation Xrotation Yrotation
                JOINT rIndex2
                {
                  OFFSET -2.54057 -0.884171 1.56538
                  CHANNELS 3 Zrotation Xrotation Yrotation
                  End Site
                  {
                    OFFSET -1.62519 -0.234802 1.16502
                  }
                }
              }
              JOINT rMid1
              {
                OFFSET -8.24714 1.18213 3.41376
                CHANNELS 3 Zrotation Xrotation Yrotation
                JOINT rMid2
                {
                  OFFSET -3.10165 -0.590103 1.0647
                  CHANNELS 3 Zrotation Xrotation Yrotation
                  End Site
                  {
                    OFFSET -2.48547 -0.328903 0.83742
                  }
                }
              }
              JOINT rRing1
              {
                OFFSET -8.82822 0.546677 1.51678
                CHANNELS 3 Zrotation Xrotation Yrotation
                JOINT rRing2
                {
                  OFFSET -2.60934 -0.819778 -0.0198488
                  CHANNELS 3 Zrotation Xrotation Yrotation
                  End Site
                  {
                    OFFSET -2.33842 -0.294052 0.168128
                  }
                }
              }
              JOINT rPinky1
              {
                OFFSET -8.27202 -0.0477905 -0.4584
                CHANNELS 3 Zrotation Xrotation Yrotation
                JOINT rPinky2
                {
                  OFFSET -1.82734 -0.647385 -0.700984
                  CHANNELS 3 Zrotation Xrotation Yrotation
                  End Site
                  {
                    OFFSET -1.69225 -0.51767 -0.607171
                  }
                }
              }
            }
          }
        }
      }
      JOINT lCollar
      {
        OFFSET 2.68224 19.2634 -4.8768
        CHANNELS 3 Zrotation Xrotation Yrotation
        JOINT lShldr
        {
          OFFSET 8.77824 -1.95073 1.46304
          CHANNELS 3 Zrotation Xrotation Yrotation
          JOINT lForeArm
          {
            OFFSET 28.1742 -1.7115 0.48768
            CHANNELS 3 Zrotation Xrotation Yrotation
            JOINT lHand
            {
              OFFSET 22.5879 0.773209 7.07136
              CHANNELS 3 Zrotation Xrotation Yrotation
              JOINT lThumb1
              {
                OFFSET 1.2192 -0.487915 3.41376
                CHANNELS 3 Zrotation Xrotation Yrotation
                JOINT lThumb2
                {
                  OFFSET 3.37035 -0.52449 3.41376
                  CHANNELS 3 Zrotation Xrotation Yrotation
                  End Site
                  {
                    OFFSET 1.78271 -1.18214 1.43049
                  }
                }
              }
              JOINT lIndex1
              {
                OFFSET 7.75947 0.938293 5.60832
                CHANNELS 3 Zrotation Xrotation Yrotation
                JOINT lIndex2
                {
                  OFFSET 2.54057 -0.884171 1.56538
                  CHANNELS 3 Zrotation Xrotation Yrotation
                  End Site
                  {
                    OFFSET 1.62519 -0.234802 1.16502
                  }
                }
              }
              JOINT lMid1
              {
                OFFSET 8.24714 1.18213 3.41376
                CHANNELS 3 Zrotation Xrotation Yrotation
                JOINT lMid2
                {
                  OFFSET 3.10165 -0.590103 1.0647
                  CHANNELS 3 Zrotation Xrotation Yrotation
                  End Site
                  {
                    OFFSET 2.48547 -0.328903 0.83742
                  }
                }
              }
              JOINT lRing1
              {
                OFFSET 8.82822 0.546677 1.51678
                CHANNELS 3 Zrotation Xrotation Yrotation
                JOINT lRing2
                {
                  OFFSET 2.60934 -0.819778 -0.0198488
                  CHANNELS 3 Zrotation Xrotation Yrotation
                  End Site
                  {
                    OFFSET 2.33842 -0.294052 0.168128
                  }
                }
              }
              JOINT lPinky1
              {
                OFFSET 8.27202 -0.0477905 -0.4584
                CHANNELS 3 Zrotation Xrotation Yrotation
                JOINT lPinky2
                {
                  OFFSET 1.82734 -0.647385 -0.700984
                  CHANNELS 3 Zrotation Xrotation Yrotation
                  End Site
                  {
                    OFFSET 1.69225 -0.51767 -0.607171
                  }
                }
              }
            }
          }
        }
      }
    }
  }
  JOINT rButtock
  {
    OFFSET -8.77824 4.35084 1.2192
    CHANNELS 3 Zrotation Xrotation Yrotation
    JOINT rThigh
    {
      OFFSET 0 -1.70687 -2.19456
      CHANNELS 3 Zrotation Xrotation Yrotation
      JOINT rShin
      {
        OFFSET 0 -36.8199 0.73152
        CHANNELS 3 Zrotation Xrotation Yrotation
        JOINT rFoot
        {
          OFFSET 0.73152 -45.1104 -5.12064
          CHANNELS 3 Zrotation Xrotation Yrotation
          End Site
          {
            OFFSET -1.1221 -3.69964 12.103
          }
        }
      }
    }
  }
  JOINT lButtock
  {
    OFFSET 8.77824 4.35084 1.2192
    CHANNELS 3 Zrotation Xrotation Yrotation
    JOINT lThigh
    {
      OFFSET 0 -1.70687 -2.19456
      CHANNELS 3 Zrotation Xrotation Yrotation
      JOINT lShin
      {
        OFFSET 0 -36.8199 0.73152
        CHANNELS 3 Zrotation Xrotation Yrotation
        JOINT lFoot
        {
          OFFSET -0.73152 -45.1104 -5.12064
          CHANNELS 3 Zrotation Xrotation Yrotation
          End Site
          {
            OFFSET 1.1221 -3.69964 12.103
          }
        }
      }
    }
  }
}
MOTION
Frames:	7
Frame Time:	0.00833333
-15.765 83.9678 -190.321 0.0 0.0 0.0 -1.74435 -0.00324549 -0.0476294 -0.481561 0.0012091 -0.0833947 -4.25992e-14 7.95139e-16 2.48481e-16 -1.27275e-13 3.18055e-15 6.21202e-16 -0.0 0.0 0.0 -0.0 0.0 0.0 -2.11235e-14 -1.11428e-16 9.93923e-17 -4.4301e-13 -2.46617e-15 1.39149e-15 -7.67701e-12 2.22122e-12 1.04958e-13 -8.79182e-11 -2.71311e-12 2.00375e-13 -2.07386e-10 -1.06479e-12 7.12444e-13 -3.58144e-10 -1.84154e-12 1.21656e-12 -2.07381e-10 -1.06429e-12 7.02903e-13 7.73091 5.47488 0.417314 -2.07387e-10 -1.06568e-12 7.09264e-13 2.90554 0.965183 0.102902 -2.07383e-10 -1.06479e-12 7.02107e-13 10.2786 0.731801 0.0259123 -2.07389e-10 -1.06071e-12 7.02903e-13 2.22167 -0.733487 -0.20892 -2.13184e-14 -1.10263e-16 -4.96962e-17 -4.47012e-13 -2.26118e-15 -5.96354e-16 -7.68432e-12 -2.37409e-12 9.22361e-14 -8.79179e-11 1.88614e-12 2.22639e-13 -2.07396e-10 -1.05584e-12 6.96541e-13 -3.58159e-10 -1.81928e-12 1.22372e-12 -2.074e-10 -1.05634e-12 7.02903e-13 -7.73091 5.47488 -0.417314 -2.07396e-10 -1.05634e-12 6.96541e-13 -2.90554 0.965183 -0.102902 -2.074e-10 -1.05555e-12 7.02903e-13 -10.2786 0.731801 -0.0259123 -2.07393e-10 -1.05475e-12 6.93361e-13 -2.22167 -0.733487 0.20892 -2.03217e-16 0.0 -3.88251e-19 -0.870135 -1.92409 -0.00261394 -0.00880175 -2.07862 -0.0724236 -0.452873 3.99792 0.131559 2.03217e-16 0.0 3.88251e-19 -1.788 -6.94315 0.17286 -0.00356937 7.01292 -0.0920086 0.486979 -0.0744819 -0.0537623
-16.6468 82.0504 -190.838 -2.7714 -0.4093 3.792 -1.87403 1.08867 1.52188 0.027259 -1.96709 0.379624 -1.79349 3.09138 -1.07982 2.89105 -6.74058 -1.39522 -0.0 0.0 0.0 -0.0 0.0 0.0 -2.33358e-14 3.963e-14 -6.9761e-15 20.0806 8.18242 0.300756 -4.80688 -2.31525 7.36021 0.00222876 1.04724 0.14709 -1.54914e-11 -3.62998e-11 -9.19227e-11 -2.73583e-11 -6.14817e-11 -1.59585e-10 -1.54873e-11 -3.62973e-11 -9.19361e-11 7.73091 5.47488 0.417314 -1.54921e-11 -3.63e-11 -9.19289e-11 2.90554 0.965183 0.102902 -1.54876e-11 -3.62995e-11 -9.19355e-11 10.2786 0.731801 0.0259123 -1.54952e-11 -3.62961e-11 -9.19356e-11 2.22167 -0.733487 -0.20892 -2.34725e-14 3.96296e-14 -7.13878e-15 -21.7068 9.19443 -2.10707 3.72426 -1.60439 -5.90877 -0.138086 8.25908 -1.11766 -3.49537e-10 3.85141e-11 1.8961e-10 -5.98985e-10 7.56529e-11 3.32124e-10 -3.49539e-10 3.85156e-11 1.89614e-10 -7.73091 5.47488 -0.417314 -3.49536e-10 3.8516e-11 1.8961e-10 -2.90554 0.965183 -0.102902 -3.49541e-10 3.85163e-11 1.89614e-10 -10.2786 0.731801 -0.0259123 -3.49534e-10 3.85166e-11 1.89606e-10 -2.22167 -0.733487 0.20892 -2.03217e-16 0.0 -3.88251e-19 -2.44131 -7.80367 -0.177323 0.000871214 9.1409 0.0854928 -0.65334 -1.93895 -0.591534 2.03217e-16 0.0 3.88251e-19 1.62531 -11.6097 -0.623974 0.00949235 15.9161 -0.218504 0.826166 -3.79523 1.98774
-16.6543 82.0448 -190.848 -2.7704 -0.515 3.835 -2.07765 2.23799 3.1828 0.600472 -4.0464 0.870826 -3.56128 6.35298 -2.23238 5.57948 -13.852 -2.93699 -0.0 0.0 0.0 -0.0 0.0 0.0 -2.58719e-14 8.56039e-14 -1.46604e-14 41.2126 16.8358 0.637858 -9.24998 -4.6375 15.1833 -0.00126602 2.15474 0.302813 1.89484e-10 -5.61281e-11 -2.04261e-10 3.25884e-10 -9.42955e-11 -3.54496e-10 1.89488e-10 -5.61234e-11 -2.04279e-10 7.73091 5.47488 0.417314 1.89484e-10 -5.61276e-11 -2.04271e-10 2.90554 0.965183 0.102902 1.89489e-10 -5.61275e-11 -2.04277e-10 10.2786 0.731801 0.0259123 1.89479e-10 -5.61248e-11 -2.04278e-10 2.22167 -0.733487 -0.20892 -2.59442e-14 8.56019e-14 -1.48374e-14 -43.8793 18.8761 -4.52152 7.30318 -3.24332 -12.1693 0.080803 16.9845 -2.3798 -5.2594e-10 6.55292e-11 3.97016e-10 -8.98527e-10 1.32833e-10 6.95845e-10 -5.2594e-10 6.55328e-11 3.97019e-10 -7.73091 5.47488 -0.417314 -5.25938e-10 6.55338e-11 3.97016e-10 -2.90554 0.965183 -0.102902 -5.25945e-10 6.55335e-11 3.97019e-10 -10.2786 0.731801 -0.0259123 -5.25937e-10 6.55334e-11 3.97013e-10 -2.22167 -0.733487 0.20892 -2.03217e-16 0.0 -3.88251e-19 -4.14037 -14.0162 -0.362694 -0.0596721 20.9993 0.26807 -1.03377 -8.21563 -1.38575 2.03217e-16 0.0 3.88251e-19 5.08559 -16.5386 -1.52095 0.0708518 25.3269 -0.371355 1.47324 -7.71631 4.16461
-16.6546 82.0395 -190.856 -2.7422 -0.6097 3.8754 -2.31289 3.26282 4.66767 1.14074 -5.90227 1.31195 -5.02719 9.26087 -3.2775 7.63458 -20.1721 -4.42887 -0.0 0.0 0.0 -0.0 0.0 0.0 -2.77605e-14 1.19113e-13 -2.11271e-14 59.9622 24.5444 0.981806 -12.6757 -6.48827 22.2123 -0.00946507 3.14162 0.441862 3.68298e-10 -1.0677e-10 -2.77193e-10 6.34213e-10 -1.80762e-10 -4.81188e-10 3.68301e-10 -1.06763e-10 -2.77214e-10 7.73091 5.47488 0.417314 3.68297e-10 -1.06769e-10 -2.77205e-10 2.90554 0.965183 0.102902 3.68303e-10 -1.06769e-10 -2.77211e-10 10.2786 0.731801 0.0259123 3.68292e-10 -1.06767e-10 -2.77212e-10 2.22167 -0.733487 -0.20892 -2.77807e-14 1.19109e-13 -2.13169e-14 -62.8786 27.4243 -7.03376 10.1949 -4.6088 -17.7787 0.634757 24.7376 -3.6539 -6.33819e-10 1.17654e-10 5.67436e-10 -1.08064e-09 2.30597e-10 9.93925e-10 -6.33817e-10 1.17659e-10 5.67437e-10 -7.73091 5.47488 -0.417314 -6.33815e-10 1.17661e-10 5.67436e-10 -2.90554 0.965183 -0.102902 -6.33824e-10 1.1766e-10 5.67437e-10 -10.2786 0.731801 -0.0259123 -6.33815e-10 1.17659e-10 5.67433e-10 -2.22167 -0.733487 0.20892 -2.03217e-16 0.0 -3.88251e-19 -5.69703 -19.5621 -0.553783 -0.188931 31.5791 0.467151 -1.51305 -13.8041 -2.09665 2.03217e-16 0.0 3.88251e-19 8.0375 -20.9289 -2.33065 0.177179 33.7215 -0.538319 2.31135 -11.18 6.1753
-16.6469 82.0339 -190.865 -2.6819 -0.6913 3.9159 -2.50112 3.98565 5.70605 1.53096 -7.20091 1.62182 -5.98887 11.2971 -4.01787 8.85895 -24.5612 -5.56501 -0.0 0.0 0.0 -0.0 0.0 0.0 -2.80301e-14 1.2146e-13 -2.45499e-14 72.9572 29.8938 1.26884 -14.7763 -7.59829 27.1297 -0.0179967 3.82703 0.538664 4.81705e-10 -2.34445e-10 -2.51607e-10 8.30258e-10 -4.01361e-10 -4.37335e-10 4.81707e-10 -2.34437e-10 -2.5163e-10 7.73091 5.47488 0.417314 4.81704e-10 -2.34444e-10 -2.5162e-10 2.90554 0.965183 0.102902 4.81711e-10 -2.34444e-10 -2.51625e-10 10.2786 0.731801 0.0259123 4.81698e-10 -2.34443e-10 -2.51626e-10 2.22167 -0.733487 -0.20892 -2.8029e-14 1.21455e-13 -2.47487e-14 -75.5954 33.2885 -9.11839 12.0519 -5.48514 -21.7104 1.25687 30.0971 -4.67244 -5.70385e-10 2.32553e-10 6.45389e-10 -9.69162e-10 4.29823e-10 1.1279e-09 -5.70382e-10 2.32559e-10 6.45389e-10 -7.73091 5.47488 -0.417314 -5.7038e-10 2.32561e-10 6.45389e-10 -2.90554 0.965183 -0.102902 -5.7039e-10 2.32559e-10 6.45389e-10 -10.2786 0.731801 -0.0259123 -5.7038e-10 2.32559e-10 6.45385e-10 -2.22167 -0.733487 0.20892 -2.03217e-16 0.0 -3.88251e-19 -6.82329 -23.4421 -0.73683 -0.336159 38.9635 0.643437 -1.8948 -17.6821 -2.53077 2.03217e-16 0.0 3.88251e-19 10.0355 -23.987 -2.81925 0.289393 39.5767 -0.682695 3.05877 -13.5531 7.67185
-16.6575 82.0318 -190.882 -2.7093 -0.7788 3.931 -2.56335 4.2865 6.11632 1.67891 -7.72032 1.74402 -6.36032 12.1267 -4.30606 9.30309 -26.2846 -6.02562 -0.0 0.0 0.0 -0.0 0.0 0.0 -2.66015e-14 6.88204e-14 -2.47002e-14 78.0061 31.944 1.41514 -15.5218 -7.97077 29.0206 -0.0218767 4.08678 0.575409 5.16388e-10 -5.49424e-10 -3.64388e-11 8.91646e-10 -9.47434e-10 -6.54538e-11 5.1639e-10 -5.49416e-10 -3.64581e-11 7.73091 5.47488 0.417314 5.16388e-10 -5.49424e-10 -3.64482e-11 2.90554 0.965183 0.102902 5.16395e-10 -5.49424e-10 -3.64519e-11 10.2786 0.731801 0.0259123 5.16381e-10 -5.49423e-10 -3.6452e-11 2.22167 -0.733487 -0.20892 -2.66318e-14 6.88159e-14 -2.48989e-14 -80.4581 35.5089 -10.0363 12.7496 -5.8112 -23.2645 1.55563 32.1307 -5.09992 -1.89731e-10 4.95915e-10 5.86334e-10 -3.1326e-10 8.73384e-10 1.01725e-09 -1.89728e-10 4.95922e-10 5.86335e-10 -7.73091 5.47488 -0.417314 -1.89727e-10 4.95922e-10 5.86334e-10 -2.90554 0.965183 -0.102902 -1.89737e-10 4.95921e-10 5.86334e-10 -10.2786 0.731801 -0.0259123 -1.89725e-10 4.9592e-10 5.86331e-10 -2.22167 -0.733487 0.20892 -2.03217e-16 0.0 -3.88251e-19 -7.30914 -24.9942 -0.895076 -0.411248 41.8743 0.724057 -1.97793 -19.1812 -2.52056 2.03217e-16 0.0 3.88251e-19 10.852 -25.1929 -2.78605 0.344103 41.8778 -0.748863 3.41879 -14.4323 8.38465
-16.6567 82.0296 -190.898 -2.6876 -0.8543 3.9429 -2.52244 4.28811 6.07654 1.64673 -7.68342 1.73086 -6.33737 12.0968 -4.26363 9.28852 -26.1149 -5.94829 -0.0 0.0 0.0 -0.0 0.0 0.0 -2.39328e-14 -2.25534e-14 -2.24658e-14 77.4116 31.6383 1.43986 -15.4046 -7.90009 28.7335 -0.0212685 4.04266 0.569169 4.94229e-10 -9.94408e-10 3.11686e-10 8.55778e-10 -1.71943e-09 5.36483e-10 4.94231e-10 -9.94399e-10 3.11673e-10 7.73091 5.47488 0.417314 4.94228e-10 -9.94409e-10 3.11683e-10 2.90554 0.965183 0.102902 4.94236e-10 -9.94409e-10 3.1168e-10 10.2786 0.731801 0.0259123 4.94223e-10 -9.94408e-10 3.11683e-10 2.22167 -0.733487 -0.20892 -2.40318e-14 -2.25578e-14 -2.26583e-14 -79.9781 35.1679 -9.93318 12.6836 -5.78276 -23.1124 1.509 31.7984 -5.03001 4.13822e-10 8.62437e-10 4.29776e-10 7.25167e-10 1.4866e-09 7.32577e-10 4.13824e-10 8.62445e-10 4.29779e-10 -7.73091 5.47488 -0.417314 4.13826e-10 8.62444e-10 4.29776e-10 -2.90554 0.965183 -0.102902 4.13816e-10 8.62442e-10 4.29778e-10 -10.2786 0.731801 -0.0259123 4.1383e-10 8.62441e-10 4.29773e-10 -2.22167 -0.733487 0.20892 -2.03217e-16 0.0 -3.88251e-19 -7.3232 -24.8835 -1.02826 -0.403579 41.5903 0.71215 -1.81806 -18.9818 -2.17874 2.03217e-16 0.0 3.88251e-19 10.8523 -25.0764 -2.36551 0.337461 41.6404 -0.743086 3.43615 -14.2567 8.51617
